<svg version="1.1" xmlns="http://www.w3.org/2000/svg" xmlns:xlink="http://www.w3.org/1999/xlink" width="1064.93853" height="695.07883" viewBox="0,0,1064.93853,695.07883"><g transform="translate(292.46926,167.41442)"><g data-paper-data="{&quot;isPaintingLayer&quot;:true}" fill-rule="nonzero" stroke-width="0.5" stroke-linecap="butt" stroke-linejoin="miter" stroke-miterlimit="10" stroke-dasharray="" stroke-dashoffset="0" style="mix-blend-mode: normal"><path d="M-292.21926,527.41442v-666.48499h1064.43853v666.48499z" fill="#484848" stroke="#ffffff"/><path d="M-31.99404,102.19512c-5.87012,0 -5.87012,-5.87012 -5.87012,-5.87012v-7.22477c0.02055,-9.77934 2.47815,-18.30235 3.65636,-27.81013c0.76191,-6.14832 0.78856,-12.21381 1.83802,-18.28499c2.19275,-12.68531 9.48379,-22.66546 14.87065,-33.93485c0.85502,-1.78871 1.0017,-3.86973 1.90618,-5.63395c3.95733,-7.71893 12.46238,-11.49699 16.53553,-18.56897c0.85565,-1.48563 0.76202,-3.37693 1.52639,-4.91153c1.86184,-3.73788 4.03836,-7.42362 4.99694,-11.48802c0,0 1.42371,-5.69485 7.11857,-4.27114c5.69486,1.42371 4.27114,7.11857 4.27114,7.11857c-1.26069,4.83285 -3.60063,9.33438 -5.84021,13.79867c-0.93897,1.87171 -0.98655,4.14346 -2.08599,5.92563c-4.13775,6.70715 -12.45667,10.27897 -15.97593,17.55487c-3.40798,7.04583 -7.75415,14.19636 -10.73716,21.45894c-4.58684,11.16729 -5.31594,21.12033 -6.77182,32.67121c-1.14526,9.08636 -3.59026,17.03725 -3.56841,26.37565v7.22477c0,0 -0.00001,5.87012 -5.87013,5.87012z" fill="#484848" stroke="none"/><path d="M-238.35151,16.85254c0,-3.10205 1.63926,-4.56483 3.18527,-5.25462c3.19069,-10.6384 4.93656,-21.79295 7.88598,-32.51045c2.5051,-9.1029 6.52774,-17.79354 8.98052,-26.90853c1.52306,-5.65994 3.83763,-11.36737 3.55054,-17.22161c-0.07076,-1.44316 -1.8322,-2.23472 -2.74831,-3.35206c0,0 -3.25616,-4.88423 1.62809,-8.1404c4.88424,-3.25617 8.1404,1.62809 8.1404,1.62809c1.49215,2.49504 4.15012,4.59629 4.47646,7.48509c0.05959,0.52741 -2.8698,19.51377 -3.67423,22.51462c-2.47755,9.24229 -6.5504,18.05073 -9.08141,27.27724c-3.3002,12.03054 -5.1818,24.51653 -9.09809,36.33893l-7.37508,4.01383c0,0 -5.87013,-0.00001 -5.87013,-5.87013z" fill="#373737" stroke="none"/><path d="M169.03175,71.57673c-4.15081,4.15081 -8.3016,0 -8.3016,0l-3.35025,-4.53329c-1.18226,-4.83469 -3.72569,-9.2387 -5.27611,-13.96819c-0.86083,-2.62593 -0.19757,-5.69243 -1.42933,-8.16617c-1.02586,-2.06021 -3.66124,-2.88772 -5.00512,-4.75612c-1.5722,-2.18582 -1.99857,-5.06949 -3.61238,-7.22477c-1.93666,-2.58642 -4.76837,-4.38037 -6.89729,-6.81097c-5.77972,-6.59882 -9.84369,-15.11406 -15.97192,-21.36962c-4.71716,-4.81517 -8.01218,-5.26342 -14.28503,-7.73149c0,0 -5.45028,-2.18011 -3.27017,-7.63039c2.18011,-5.45028 7.63039,-3.27017 7.63039,-3.27017c8.51622,3.45427 11.4812,3.69009 18.22643,10.33043c6.43535,6.33531 10.59641,15.18015 16.53954,21.979c2.35651,2.69579 5.40179,4.7757 7.55225,7.63857c1.6171,2.15282 2.05394,5.02912 3.61239,7.22477c1.62563,2.29027 4.57264,3.57068 5.83203,6.08103c1.51468,3.01927 1.10037,6.69606 2.18305,9.89575c1.70225,5.03077 4.25063,9.78414 5.56105,14.93089l0.26213,-0.92091c0,0 4.15081,4.15081 0,8.3016z" fill="#373737" stroke="none"/><path d="M53.43544,235.94024c-4.15081,4.15081 -8.3016,0 -8.3016,0l-4.68111,-5.07713c-6.59865,-34.9862 -20.44258,-69.60786 -20.51873,-105.63903c0,0 0.00001,-5.87012 5.87013,-5.87012c5.87012,0 5.87012,5.87012 5.87012,5.87012c-0.0328,14.13167 3.0382,27.25037 5.80084,41.06631c2.59113,12.95818 4.9541,25.91826 8.44388,38.67527c1.85752,6.79022 4.00431,13.55257 4.97279,20.52534l2.54366,2.14764c0,0 4.15081,4.15081 0,8.3016z" fill="#373737" stroke="none"/><path d="M482.77079,183.47378c-5.87012,0 -5.87013,-5.87012 -5.87013,-5.87012v-11.74025c0,-7.22477 -0.00683,-14.44954 0,-21.67431c0.00334,-3.54023 0.58484,-16.14206 -1.29614,-20.18409c-1.41867,-3.04856 -4.29898,-5.17149 -6.44848,-7.75724c0,0 -3.66704,-4.58379 0.91675,-8.25083c4.58379,-3.66704 8.25083,0.91675 8.25083,0.91675c2.66702,3.43489 6.22731,6.33412 8.00105,10.30469c2.99676,6.7084 2.30986,17.91323 2.31624,24.97072c0.00652,7.22477 0,14.44954 0,21.67431v11.74025c0,0 0,5.87012 -5.87012,5.87012z" fill="#373737" stroke="none"/><path d="M-93.1283,309.07322c-1.42371,5.69486 -7.11856,4.27114 -7.11856,4.27114l-7.93561,-2.03278c-1.44806,-0.78221 -20.05717,-10.80394 -21.09198,-11.49093c-5.36528,-3.56196 -9.35779,-8.90036 -14.54769,-12.71332c-5.24975,-3.85694 -11.33116,-6.88174 -15.53258,-11.86007c-4.20388,-4.98126 -7.56237,-11.29205 -11.18178,-16.72117c0,0 -3.25617,-4.88423 1.62808,-8.1404c4.88424,-3.25617 8.14041,1.62809 8.14041,1.62809c3.42833,5.14252 6.57633,11.01244 10.49253,15.79029c3.50403,4.27497 8.91742,6.53408 13.36649,9.81423c5.11916,3.77417 9.04106,9.07326 14.35139,12.57338c5.91257,3.89706 12.4435,6.76345 18.64426,10.18338l6.51393,1.5796c0,0 5.69485,1.42371 4.27114,7.11857z" fill="#373737" stroke="none"/><path d="M607.54838,-22.8336c-1.8563,5.56889 -7.42519,3.71259 -7.42519,3.71259l-11.5599,-3.90806c-4.24819,-2.88185 -9.55669,-3.76056 -14.40911,-5.43575c-3.89856,-1.34589 -7.50716,-3.41805 -11.25716,-5.13493c-18.01632,-8.24846 -36.17399,-16.76712 -52.67712,-27.74834c0,0 -4.88423,-3.25616 -1.62808,-8.1404c3.25617,-4.88424 8.1404,-1.62809 8.1404,-1.62809c9.72458,6.49611 19.68732,11.47639 30.11667,16.74697c9.96099,5.03388 20.45428,11.13598 31.02873,14.77064c5.34322,1.83657 11.11981,2.92392 15.84378,6.02347l10.11441,3.31671c0,0 5.56889,1.85629 3.71259,7.42518z" fill="#373737" stroke="none"/><path d="M412.55913,451.93679c-1.59808,5.64842 -7.2465,4.05031 -7.2465,4.05031l-1.61957,-0.45821c-11.40779,-3.2396 -22.59274,-4.23959 -34.1402,-6.67599c-18.53481,-3.91068 -36.26914,-10.47637 -53.70626,-17.67632c-5.5005,-2.27122 -17.76049,-7.0042 -22.54594,-10.39343c-5.72346,-4.05357 -9.77806,-10.20202 -13.90713,-15.68956c0,0 -3.52207,-4.6961 1.17403,-8.21818c4.6961,-3.52207 8.21818,1.17403 8.21818,1.17403c2.97406,3.9796 7.20478,10.29456 11.37957,13.20952c3.59012,2.50673 16.43153,7.52711 20.16025,9.06531c16.79358,6.92783 33.84238,13.28859 51.69532,17.05071c11.77789,2.48194 23.21654,3.57203 34.86834,6.8571l1.61958,0.45822c0,0 5.64841,1.59808 4.05031,7.24649z" fill="#373737" stroke="none"/><path d="M368.98745,201.53571c-5.87012,0.00677 -5.8769,-5.86336 -5.8769,-5.86336l-0.00872,-7.55882c-0.01624,-7.36947 1.63581,-14.92159 0.00533,-22.10843c-1.63135,-7.19069 -6.04486,-10.15916 -10.92064,-14.95591c0,0 -4.15081,-4.1508 0,-8.3016c4.15081,-4.15081 8.3016,0 8.3016,0c7.02022,7.11625 11.324,9.81185 14.02969,20.49522c0.35304,1.39398 0.3196,22.76107 0.32424,24.85098l0.00873,7.565c0,0 0.00677,5.87013 -5.86336,5.8769z" fill="#373737" stroke="none"/><path d="M84.05383,417.82724c0,5.87012 -5.87013,5.87013 -5.87013,5.87013h-1.80619c-5.97211,-0.07118 -14.2136,-0.90187 -19.34185,-4.48908c-3.15946,-2.21004 -5.55812,-5.34597 -8.28946,-8.06739c-2.08837,-2.08079 -4.60924,-3.83593 -6.1684,-6.33793c-4.29345,-6.88979 -5.35955,-15.46894 -7.89304,-23.04948c0,0 -1.8563,-5.56888 3.71259,-7.42518c5.56889,-1.8563 7.42518,3.71259 7.42518,3.71259c2.13461,6.41939 2.93351,14.52594 6.5565,20.29915c1.14883,1.83067 3.1442,2.96726 4.66876,4.49923c6.24926,6.27959 10.34009,9.26999 19.32969,9.11784h1.80619c0,0 5.87013,0 5.87013,5.87012z" fill="#373737" stroke="none"/><path d="M624.18814,381.34718c-3.25617,-4.88424 1.62808,-8.1404 1.62808,-8.1404l5.41858,-3.61239c3.97511,-2.49573 6.65814,-6.74658 9.05972,-10.77926c1.63045,-2.73779 3.66125,-5.2579 4.98772,-8.15517c3.61824,-7.90292 3.20787,-18.35253 3.2067,-26.75472c-0.00007,-0.57217 0.50015,-14.24097 -0.81349,-16.60174c-0.6952,-1.24936 -2.53154,-1.32968 -3.79732,-1.99452c0,0 -4.88423,-3.25616 -1.62808,-8.1404c3.25617,-4.88424 8.1404,-1.62809 8.1404,-1.62809c2.34661,1.74341 5.5754,2.70013 7.03983,5.23025c3.60413,6.22691 2.79974,16.42187 2.79889,23.13449c-0.0026,20.64664 -4.45206,42.95422 -22.48207,55.45762l-5.41858,3.61238c0,0 -4.88423,3.25617 -8.1404,-1.62808z" fill="#373737" stroke="none"/><path d="M692.28911,150.96232c-5.87012,0 -5.87012,-5.87012 -5.87012,-5.87012l0.63827,-4.46814c3.90311,-7.67124 9.85471,-15.7237 10.20356,-24.66518c0.12725,-3.26155 -1.15399,-6.42524 -1.731,-9.63786c0,0 -0.96505,-5.79026 4.82521,-6.75531c5.79026,-0.96505 6.7553,4.82521 6.7553,4.82521c0.62713,4.01215 2.09551,7.98123 1.88139,12.03645c-0.58011,10.98638 -6.67402,20.09304 -11.47075,29.52059l0.63827,-0.85576c0,0 -0.00001,5.87012 -5.87013,5.87012z" fill="#373737" stroke="none"/><path d="M316.06267,-1.74781c0.74544,-0.74544 1.49089,-1.22313 2.21228,-1.50521c1.63768,-4.36159 3.65508,-8.59864 5.54962,-12.85435c4.05855,-9.11677 6.49675,-18.41739 11.00663,-27.46345c0,0 2.62519,-5.2504 7.87559,-2.62519c5.2504,2.62519 2.62519,7.87559 2.62519,7.87559c-4.41054,8.79361 -6.73137,17.83792 -10.66768,26.72233c-2.51696,5.68089 -5.42165,11.2716 -6.96495,17.29037l-11.63669,0.86154c0,0 -4.15081,-4.15081 0,-8.3016z" fill="#373737" stroke="none"/><path d="M322.77867,335.04782c-3.91781,4.37138 -8.28922,0.45357 -8.28922,0.45357l-8.26114,-7.41601c-18.54598,-13.22762 -35.49073,-27.29252 -51.57618,-43.37796c0,0 -4.15081,-4.15081 0,-8.3016c4.15081,-4.15081 8.3016,0 8.3016,0c15.78759,15.78759 32.42948,29.50898 50.61552,42.51749l8.75583,7.83532c0,0 4.37138,3.91782 0.45357,8.28922z" fill="#373737" stroke="none"/><path d="M-216.05748,176.61647c-2.62519,-5.2504 2.62519,-7.87559 2.62519,-7.87559l7.56112,-3.78056c11.33467,-5.64879 25.92903,-12.56555 32.71177,-23.87699c4.41734,-7.3667 4.14893,-11.9482 5.30836,-20.30178c0,0 0.83016,-5.81113 6.64129,-4.98097c5.81113,0.83016 4.98098,6.64129 4.98098,6.64129c-1.51513,10.34517 -1.23484,15.33267 -6.86792,24.68924c-8.10473,13.462 -23.98567,21.54017 -37.52408,28.33l-7.56112,3.78056c0,0 -5.2504,2.62519 -7.87559,-2.62519z" fill="#373737" stroke="none"/><path d="M-45.45638,13.07198c-5.2504,-2.62519 -2.62519,-7.87559 -2.62519,-7.87559l2.15039,-4.21019c5.4495,-8.26749 8.86353,-16.33283 11.98064,-25.72617c0,0 1.8563,-5.56889 7.42519,-3.71259c5.56889,1.8563 3.71259,7.42518 3.71259,7.42518c-3.45929,10.33487 -7.3281,19.33182 -13.30606,28.4596l-1.46199,3.01459c0,0 -2.62519,5.2504 -7.87559,2.62519z" fill="#373737" stroke="none"/><path d="M-46.37282,-163.8868c0,-1.94825 1.57937,-3.52762 3.52762,-3.52762c1.94825,0 3.52762,1.57937 3.52762,3.52762c0,1.94825 -1.57937,3.52762 -3.52762,3.52762c-1.94825,0 -3.52762,-1.57937 -3.52762,-3.52762z" fill="#9966ff" stroke="none"/><path d="M-7.20317,5.98417c-2.4944,-2.4944 0,-4.9888 0,-4.9888l3.87003,-3.80562c1.21891,-2.50584 2.93279,-4.81006 3.73647,-7.47823c1.84248,-6.11693 2.40345,-12.84737 4.23194,-19.05091c2.29656,-7.79152 5.78624,-15.32543 8.3839,-23.03521c1.6487,-4.89331 5.42738,-15.46576 11.12325,-17.48567c2.21348,-0.78496 4.41698,1.59783 6.62546,2.39674c0,0 3.1552,1.57759 1.5776,4.7328c-1.5776,3.1552 -4.7328,1.5776 -4.7328,1.5776c-0.61643,-0.61354 -1.10711,-2.29404 -1.8493,-1.84063c-1.3837,0.8453 -1.382,2.94029 -2.22153,4.32751c-1.61255,2.66456 -2.8549,5.56462 -3.82949,8.52272c-2.5333,7.6891 -6.06533,15.14864 -8.34088,22.90175c-1.82216,6.20837 -2.3578,12.97121 -4.24282,19.08552c-0.20212,0.6556 -4.43407,8.87571 -4.73829,9.4713l-4.60473,4.66914c0,0 -2.49441,2.4944 -4.98881,0z" fill="#373737" stroke="none"/><path d="M-34.37044,112.95192c-3.52762,0 -3.52762,-3.52762 -3.52762,-3.52762l1.71247,0.90609c-5.53767,-3.47494 -9.66322,-9.53919 -12.35877,-15.55842c-0.90026,-2.0103 -3.06232,-11.43419 -3.94818,-13.73983c-3.30429,-8.6001 -8.36064,-16.68127 -12.00277,-25.17549c-3.36458,-7.91177 -8.36084,-14.32018 -13.2913,-21.36071c-8.1039,-11.5721 -17.53353,-21.28766 -27.49218,-31.24631c-3.20737,-3.20737 -6.02295,-6.85406 -9.59659,-9.64753c-3.13406,-2.44986 -7.00166,-3.77807 -10.49389,-5.68292c-3.97393,-2.1676 -7.73327,-4.77509 -11.90254,-6.538c-3.1539,-1.33358 -6.7233,-1.30374 -10.08106,-1.97529c0,0 -3.45911,-0.69182 -2.76729,-4.15094c0.69182,-3.45911 4.15094,-2.76729 4.15094,-2.76729c3.70459,0.74092 7.6126,0.82327 11.10584,2.26209c0.4483,0.18465 12.17916,6.59747 12.87252,6.97567c3.78651,2.06537 7.93563,3.58225 11.34224,6.22771c0.29892,0.23214 9.88151,9.83057 10.35864,10.30769c10.24754,10.24754 19.93908,20.28154 28.28184,32.18719c5.22877,7.46178 10.38313,14.25409 13.99762,22.62944c3.6748,8.57876 8.76173,16.72876 12.10051,25.41565c3.36262,8.74893 4.28364,20.70989 13.35472,25.78771l1.71247,5.14347c0,0 0,3.52762 -3.52762,3.52762z" fill="#373737" stroke="none"/><path d="M14.38444,312.10875c-3.52753,0.02499 -3.55252,-3.50255 -3.55252,-3.50255l0.0515,-5.64977c-5.22654,-10.08171 -10.13215,-19.52201 -11.40524,-30.91476c-1.09544,-4.35936 -1.79631,-8.83458 -3.25807,-13.08514c-1.01249,-2.94418 -3.02872,-5.45915 -4.18797,-8.34869c-0.74151,-1.8483 -2.18703,-7.7147 -3.84004,-9.88079c-3.6532,-4.78709 -9.10196,-8.35218 -12.91246,-13.03652c-5.55127,-6.82432 -9.60722,-14.85 -16.59332,-20.5076c-8.55722,-6.92995 -19.39056,-9.04128 -27.33153,-16.87268c0,0 -2.4944,-2.4944 0,-4.9888c2.4944,-2.4944 4.98881,0 4.98881,0c7.51206,7.63922 18.4597,9.63817 26.78292,16.37869c7.41173,6.00236 11.75555,14.2983 17.62957,21.54237c3.88647,4.79294 9.4904,8.40077 13.15951,13.35928c2.60259,3.51719 3.04726,7.32514 4.63472,11.30613c0.71143,1.7841 3.71427,6.95132 4.28678,8.60083c0.14227,0.4099 3.46124,13.78964 3.58653,14.29321c1.18359,11.22048 6.44141,20.45998 11.32049,30.50921l0.14284,7.24506c0,0 0.02499,3.52754 -3.50254,3.55252z" fill="#373737" stroke="none"/><path d="M-151.27413,453.02789c-2.4944,-2.4944 0,-4.98881 0,-4.98881l5.06725,-4.85319c1.54931,-0.36131 3.09862,-0.72263 4.64793,-1.08395c6.53545,-1.29218 10.88892,-3.48599 17.19722,-5.54296c5.4124,-1.76484 11.46831,-1.32726 16.58198,-4.20782c2.09801,-1.18182 3.52091,-3.40029 5.68386,-4.45859c2.26359,-1.10755 4.90894,-1.15896 7.31678,-1.90249c5.57077,-1.72026 10.94115,-4.46411 16.1786,-6.97456c1.9502,-0.93478 4.09429,-1.53521 5.86102,-2.78252c1.85563,-1.31007 3.08474,-3.35837 4.85436,-4.78249c2.86598,-2.30644 5.99827,-2.3509 6.75013,-6.10204c0.77478,-3.86549 -2.24502,-4.89886 -3.94731,-8.35108c-1.05673,-2.14302 -1.53092,-4.52693 -2.29637,-6.7904c0,0 -1.11553,-3.3466 2.23106,-4.46213c3.3466,-1.11553 4.46213,2.23106 4.46213,2.23106c0.647,1.97391 1.0215,4.05909 1.94101,5.92174c2.94364,5.96295 5.96038,5.68012 4.52745,12.83583c-1.37234,6.8531 -4.26101,6.15491 -9.22789,10.19981c-1.88582,1.53576 -3.24765,3.68304 -5.24201,5.07493c-2.08365,1.4542 -4.55848,2.24628 -6.84274,3.35915c-5.49134,2.67536 -11.20912,5.5604 -17.07875,7.33569c-2.09019,0.63219 -4.41547,0.55077 -6.3724,1.5198c-2.05717,1.01867 -3.36457,3.19992 -5.37961,4.29956c-5.76009,3.14338 -11.99052,2.82102 -17.98872,4.79864c-6.39733,2.10922 -11.13615,4.34716 -17.82615,5.6991c-0.90083,0.12872 -1.80168,0.25742 -2.70251,0.38614l-3.40751,3.62157c0,0 -2.4944,2.4944 -4.9888,0z" fill="#373737" stroke="none"/><path d="M146.42803,365.78586c0,-2.23885 1.42091,-3.05678 2.45914,-3.35561c0.47363,-2.64912 1.32974,-5.25967 1.8419,-7.90497c0.87077,-4.49755 0.51351,-9.14777 0.79204,-13.72037c4.45343,-17.9717 8.63669,-35.89925 16.42973,-52.79423c5.98098,-12.96651 15.86695,-25.08227 18.78893,-39.38222c1.02287,-5.00582 -0.0566,-11.17646 -0.0566,-16.32011c0,0 0,-3.52762 3.52762,-3.52762c3.52762,0 3.52762,3.52762 3.52762,3.52762c0,5.55594 1.02923,12.1529 -0.0566,17.57894c-3.00174,15.00007 -13.09377,27.55091 -19.3475,41.12803c-7.50265,16.28859 -11.472,33.55544 -15.83915,50.85698c-0.04462,0.78904 -0.75033,13.5231 -0.83814,13.98722c-0.62815,3.32004 -2.09694,6.54765 -2.05503,9.92633l-5.64632,3.52762c0,0 -3.52762,0 -3.52762,-3.52762z" fill="#373737" stroke="none"/><path d="M395.014,120.01775c0,3.52762 -3.52762,3.52762 -3.52762,3.52762h-4.23738c-1.93033,-0.01518 -3.88653,-0.3608 -5.79101,-0.04555c-5.85846,0.96978 -10.99985,4.99942 -16.73005,6.31328c-0.35108,0.0805 -13.89627,0.99007 -14.51568,1.03228c-7.02983,0.47906 -14.0656,0.90848 -21.09184,1.43727c-25.83807,1.94458 -51.5986,4.1829 -77.47679,5.56787c-16.44985,0.88037 -32.94363,2.20279 -49.41033,2.64312c-25.85847,0.69146 -51.83293,0.00126 -77.70193,0.00126c0,0 -3.52762,0 -3.52762,-3.52762c0,-3.52762 3.52762,-3.52762 3.52762,-3.52762c25.80602,0 51.71789,0.69104 77.51334,0.00126c16.4037,-0.43864 32.8349,-1.75855 49.22188,-2.63556c25.82733,-1.38225 51.53702,-3.61729 77.32436,-5.55805c7.04284,-0.53005 14.09521,-0.96064 21.14164,-1.44084c4.47448,-0.30493 9.05506,0.13124 13.42629,-0.87191c5.95883,-1.36749 11.02359,-5.36889 17.169,-6.39887c2.27536,-0.38135 4.61409,-0.03037 6.92113,-0.04556h4.23738c0,0 3.52762,0 3.52762,3.52762z" fill="#373737" stroke="none"/><path d="M300.7584,82.25703c-2.4944,2.4944 -4.98881,0 -4.98881,0l-2.96464,-3.479c-3.79777,-11.31615 -11.59711,-19.12335 -17.73938,-29.08077c-3.68827,-5.97917 -5.96168,-12.83989 -9.46401,-18.92863c-2.80169,-4.87069 -7.05484,-9.38268 -10.42326,-13.87391c-7.91588,-10.55451 -16.46512,-20.26872 -25.23029,-30.12955c0,0 -2.34362,-2.63657 0.29295,-4.98019c2.63658,-2.34362 4.9802,0.29295 4.9802,0.29295c8.8946,10.00642 17.56774,19.8722 25.60133,30.58365c3.50622,4.67496 7.84476,9.33587 10.7806,14.3979c3.52382,6.07584 5.78199,12.95959 9.46719,18.93376c6.45075,10.4575 14.34368,18.64566 18.41538,30.51661l1.27274,0.75837c0,0 2.4944,2.49441 0,4.98881z" fill="#373737" stroke="none"/><path d="M402.26989,309.98502c-3.5225,0.19005 -3.71255,-3.33244 -3.71255,-3.33244l-0.05595,-1.03691c-0.82186,-15.96189 -9.82574,-26.99222 -17.8562,-40.15004c-4.51503,-7.39784 -9.88649,-15.35604 -13.5506,-23.20848c-1.82875,-3.91914 -1.94092,-8.54663 -4.03327,-12.33161c-0.6645,-1.20205 -2.00021,-1.88316 -2.97958,-2.84613c0,0 -8.76296,-8.76297 -9.22619,-9.22619c0,0 -2.4944,-2.4944 0,-4.9888c2.4944,-2.4944 4.9888,0 4.9888,0c3.97328,3.97328 10.44405,8.47052 13.21851,13.35196c2.03396,3.57859 2.66087,9.28338 4.4415,13.09268c3.55934,7.61449 8.78373,15.3056 13.16306,22.48108c5.69061,9.324 12.74396,18.1478 16.55501,28.52214c2.30953,6.28692 1.95817,8.41417 2.32395,14.92326l0.05595,1.03692c0,0 0.19005,3.5225 -3.33244,3.71255z" fill="#373737" stroke="none"/><path d="M444.45365,55.74727c-3.52762,0 -3.52762,-3.52762 -3.52762,-3.52762v-2.11869c0.06375,-3.12424 -1.37205,-6.10879 -2.36881,-9.07044c-2.30042,-6.83523 -4.59415,-12.4975 -7.85222,-19.01363c0,0 -1.5776,-3.15519 1.5776,-4.7328c3.1552,-1.5776 4.7328,1.5776 4.7328,1.5776c4.7985,9.597 10.80783,20.38071 10.96587,31.23927v2.11869c0,0 0,3.52762 -3.52762,3.52762z" fill="#373737" stroke="none"/></g></g></svg>